<svg width="68.000000" height="68.000000" viewBox="0 0 68 68" fill="none" xmlns="http://www.w3.org/2000/svg" xmlns:xlink="http://www.w3.org/1999/xlink">
	<desc>
			Created with Pixso.
	</desc>
	<defs>
		<filter id="filter_1106_658_dd" x="0.000000" y="0.000000" width="68.000000" height="68.000000" filterUnits="userSpaceOnUse" color-interpolation-filters="sRGB">
			<feFlood flood-opacity="0" result="BackgroundImageFix"/>
			<feColorMatrix in="SourceAlpha" type="matrix" values="0 0 0 0 0 0 0 0 0 0 0 0 0 0 0 0 0 0 127 0" result="hardAlpha"/>
			<feOffset dx="0" dy="4"/>
			<feGaussianBlur stdDeviation="1.33333"/>
			<feComposite in2="hardAlpha" operator="out" k2="-1" k3="1"/>
			<feColorMatrix type="matrix" values="0 0 0 0 0 0 0 0 0 0 0 0 0 0 0 0 0 0 0.25 0"/>
			<feBlend mode="normal" in2="BackgroundImageFix" result="effect_dropShadow_1"/>
			<feBlend mode="normal" in="SourceGraphic" in2="effect_dropShadow_1" result="shape"/>
		</filter>
	</defs>
	<g filter="url(#filter_1106_658_dd)">
		<path id="Vector" d="M45.13 27.86C45.4 28.15 45.61 28.49 45.76 28.86C46.06 29.59 46.06 30.4 45.76 31.13C45.61 31.5 45.4 31.84 45.13 32.12L36.13 41.12C35.56 41.69 34.79 42.01 34 42.01C33.2 42.01 32.43 41.69 31.87 41.12C31.3 40.56 30.98 39.79 30.98 39C30.98 38.2 31.3 37.43 31.87 36.86L35.77 33L25 33C24.2 33 23.44 32.68 22.87 32.12C22.31 31.55 22 30.79 22 30C22 29.2 22.31 28.44 22.87 27.87C23.44 27.31 24.2 27 25 27L35.77 27L31.87 23.12C31.58 22.85 31.36 22.51 31.21 22.15C31.06 21.78 30.98 21.39 30.98 21C30.98 20.6 31.06 20.21 31.21 19.84C31.36 19.48 31.58 19.14 31.87 18.87C32.14 18.58 32.48 18.36 32.84 18.21C33.21 18.06 33.6 17.98 34 17.98C34.39 17.98 34.78 18.06 35.15 18.21C35.51 18.36 35.85 18.58 36.13 18.87L45.13 27.86ZM64 30C64 35.93 62.24 41.73 58.94 46.66C55.64 51.6 50.96 55.44 45.48 57.71C39.99 59.98 33.96 60.58 28.14 59.42C22.32 58.26 16.98 55.4 12.78 51.21C8.59 47.01 5.73 41.67 4.57 35.85C3.41 30.03 4.01 24 6.28 18.51C8.55 13.03 12.39 8.35 17.33 5.05C22.26 1.75 28.06 0 34 0C37.93 0 41.84 0.77 45.48 2.28C49.12 3.79 52.42 6 55.21 8.78C60.83 14.41 64 22.04 64 30ZM10 30C10 34.74 11.4 39.38 14.04 43.33C16.68 47.28 20.43 50.35 24.81 52.17C29.2 53.98 34.02 54.46 38.68 53.53C43.33 52.61 47.61 50.32 50.97 46.97C54.32 43.61 56.61 39.33 57.53 34.68C58.46 30.02 57.98 25.2 56.17 20.81C54.35 16.43 51.28 12.68 47.33 10.04C43.38 7.4 38.74 6 34 6C27.63 6 21.53 8.52 17.02 13.02C12.52 17.53 10 23.63 10 30Z" fill="#8B5CF6" fill-opacity="1.000000" fill-rule="nonzero"/>
	</g>
</svg>
