<svg width="75.000000" height="75.000000" viewBox="0 0 75 75" fill="none" xmlns="http://www.w3.org/2000/svg" xmlns:xlink="http://www.w3.org/1999/xlink">
	<desc>
			Created with Pixso.
	</desc>
	<defs>
		<clipPath id="clip2_332">
			<rect id="Icon / Quotes" rx="0.000000" width="74.000008" height="74.000008" transform="translate(0.500000 0.500000)" fill="white" fill-opacity="0"/>
		</clipPath>
	</defs>
	<g clip-path="url(#clip2_332)">
		<path id="“" d="M33.53 32.58C33.53 37.23 32.83 41.22 31.42 44.55C30.01 48 28.19 50.8 25.96 52.94C23.73 55.2 21.21 56.81 18.39 57.76C15.46 58.83 12.58 59.37 9.77 59.37L9.77 53.12C12.82 53.12 15.69 52.05 18.39 49.91C20.98 47.88 22.5 45.08 22.97 41.51C22.62 41.63 22.21 41.75 21.74 41.87C21.39 41.99 20.98 42.11 20.51 42.23C19.92 42.35 19.27 42.41 18.57 42.41C15.05 42.41 12.11 41.04 9.77 38.3C7.42 35.68 6.25 32.58 6.25 29.01C6.25 25.44 7.48 22.29 9.94 19.55C12.29 16.93 15.46 15.62 19.45 15.62C23.91 15.62 27.37 17.29 29.84 20.62C32.3 24.07 33.53 28.06 33.53 32.58ZM68.75 32.58C68.75 37.23 68.04 41.22 66.63 44.55C65.22 48 63.4 50.8 61.17 52.94C58.94 55.2 56.42 56.81 53.6 57.76C50.67 58.83 47.79 59.37 44.98 59.37L44.98 53.12C48.03 53.12 50.9 52.05 53.6 49.91C56.19 47.88 57.71 45.08 58.18 41.51C57.83 41.63 57.42 41.75 56.95 41.87C56.6 41.99 56.19 42.11 55.72 42.23C55.13 42.35 54.48 42.41 53.78 42.41C50.26 42.41 47.32 41.04 44.98 38.3C42.63 35.68 41.46 32.58 41.46 29.01C41.46 25.44 42.69 22.29 45.15 19.55C47.5 16.93 50.67 15.62 54.66 15.62C59.12 15.62 62.58 17.29 65.05 20.62C67.51 24.07 68.75 28.06 68.75 32.58Z" fill="#EDE9FE" fill-opacity="1.000000" fill-rule="evenodd"/>
	</g>
</svg>
